<svg xmlns="http://www.w3.org/2000/svg" viewBox="0 0 1024 1024"><path fill="#bce2ef" d="M823 66a332 332 0 0 0-166 204c-29 82-30 170-53 254-5 17-14 34-28 46-23 15-53 10-74-4-43-25-89-53-140-53-58 0-115 33-142 85-35 50-42 115-80 164-32 43-82 69-133 82-11 1-6 15 3 14 68 21 143 0 202-37 2 29-1 59 1 88 2 9-3 25 8 29 29 16 65 15 96 4 12-3 3-16 7-24 16-1 35 5 50-3 5-13-5-30-3-43 35 5 70 1 104-2l9 81c-1 8 5 14 13 16 34 12 73 11 105-6 5-7-6-18 2-22 15 1 33 3 44-6-5-39-17-77-30-114-2-5 3-8 6-11 42-57 55-129 60-199 8-91 7-183 29-272 12-57 30-115 72-156 19-20 45-31 72-36 5-1 9 2 11 7 28 35 83 44 119 18 13-3 36 8 35-14 11-46-27-89-69-102-43-12-89-6-130 12z"/><path fill="#374a6e" d="M823 66a332 332 0 0 0-166 204c-29 82-30 170-53 254-5 17-14 34-28 46-23 15-53 10-74-4-43-25-89-53-140-53-58 0-115 33-142 85-35 50-42 115-80 164-32 43-82 69-133 82-12 1-6 15 3 14 68 21 143 0 202-37 2 29-1 59 1 88 2 9-3 25 8 29 29 16 65 15 96 4 12-3 3-16 7-24 16-1 35 5 50-3 5-13-5-30-3-43 35 5 70 1 104-2l9 81c-1 8 5 14 13 16 34 12 73 11 105-6 5-7-6-18 2-22 15 1 33 3 44-6-5-39-17-77-30-114-2-5 3-8 6-11 42-57 55-129 60-199 8-91 7-183 29-272 12-57 30-115 72-156 19-20 45-31 72-36 5-1 9 2 11 7 27 35 83 44 119 18 13-3 36 8 35-14 11-46-27-89-69-102-43-12-89-6-130 12zm-3 11c37-15 77-27 117-19 46 7 98 56 74 105-40 3-84-8-114-36 6-1 17 0 14-9-7-4-18-5-24-1-6 5-5 26 5 16 22 21 53 32 81 38-32 12-78 5-99-26-2-4-8-2-9-6-14-6-28 1-41 6-51 21-82 70-99 120-49 133-37 278-58 416-15 57-35 121-89 153-10-16-11-35-21-50-5-11-9-24-21-30-3-1-5 3-3 5 20 28 31 60 38 93 9 34 19 68 23 103-32 14-69 9-101-1-5-18-5-37-7-56-7-44 2-88 7-132-13 14-12 35-14 52l-4 46c-53 7-108 4-160-12-5-14-7-30-11-44-5-25-14-50-28-72-3-2-7-8-12-4 33 57 45 123 52 187-1 6 3 14-3 17-23 4-45 1-68-1-8-2-22-3-23-15-5-59 2-119 11-178-16 18-15 45-21 67-56 38-127 56-195 44-10-1 3-7 8-8 49-10 95-39 124-80 29-36 41-81 58-123 20-39 44-78 81-103 43-23 96-23 140-2 33 12 60 36 93 49 24 7 53 3 69-18 29-37 34-87 40-133 10-32 9-67 19-100 21-100 69-206 164-255l7-3zm109 6-3 2c-10 7 4 25 13 15 8-7-1-21-10-17zM317 862l42 9c6 11 5 25 8 38-13 6-29 2-42 0-7-14-4-31-8-47zm293-34a993 993 0 0 1 32 99c-12 6-28 6-41 3-7-22-9-46-17-67-9-19 16-23 25-34l1-1z"/><path fill="#5b7abb" d="m820 77-7 3c-95 49-143 155-164 255-10 33-9 68-19 100-6 46-11 96-40 133-16 21-45 25-69 18-33-13-60-37-93-49-44-21-97-21-140 2-37 25-61 64-81 103-17 42-29 87-58 123-29 41-75 70-124 80-5 1-18 7-8 8 68 12 139-6 195-44 6-22 5-49 21-67-9 59-16 119-11 178 1 12 15 13 23 15 23 2 45 5 68 1 6-3 2-11 3-17-7-64-19-130-52-187 5-4 9 2 12 4 14 22 23 47 28 72 1-2-2-8 2-6 54 15 113 21 169 11 4-1 3 3 4 5 2-17 1-38 14-52-5 44-14 88-7 132 2 19 2 38 7 56 32 10 69 15 101 1-4-35-14-69-23-103-7-33-18-65-38-93-2-2 0-6 3-5 12 6 16 19 21 30 32-23 58-56 71-93 21-49 24-103 32-155 11-72 15-144 32-214 17-61 38-127 91-166 21-16 46-21 71-28 5-1 16 5 11 11 1 4 7 2 9 6 21 31 67 38 99 26-28-6-59-17-81-38-10 10-11-11-5-16 7-4 17-3 24 1 3 9-8 8-14 9 30 28 74 39 114 36 24-49-28-98-74-105-40-8-80 4-117 19zm99-16c18-8 43 8 42 29 1 24-31 40-49 24-18-10-16-39 1-50l6-3zM312 544c26-11 58-2 74 21 5 14 15 29 10 45-5 29-32 46-60 50-53 1-81-76-37-108l13-8zm-67 95c7-3 18-2 22 6 8 10-1 28-14 26-15 1-23-21-11-30l3-2zm202-58c18-8 42-1 50 17 15 20 6 55-18 61-29 16-66-15-60-45 3-13 10-25 23-30l5-3zm-62 86c17-8 40 0 46 19 13 22-14 50-37 45-26-3-37-40-18-58 2-3 5-4 9-6zm102 17c9-4 22-3 24 8 7 11-5 27-17 23-16 0-19-24-7-31zM317 862c4 16 1 33 8 47 13 2 29 6 42 0-3-13-2-27-8-38l-42-9zm293-34-1 1c-9 11-34 15-25 34 7 21 10 45 17 67 13 3 29 3 41-4a993 993 0 0 0-32-98z"/><path fill="#95b6e0" d="M913 64c19-14 50 3 48 26 1 24-31 40-49 24-18-10-16-39 1-50m13 21c-10 7 4 25 13 15 9-8-4-24-13-15z"/></svg>